<svg width="243" height="58" viewBox="0 0 243 58" fill="none" xmlns="http://www.w3.org/2000/svg">
<path d="M48.7927 41.7896C52.3274 45.3582 52.3274 51.1442 48.7927 54.7128C45.258 58.2815 39.5272 58.2815 35.9925 54.7128L27.2096 45.8455C23.6749 42.2768 23.6749 36.4909 27.2096 32.9222C30.7443 29.3536 36.4751 29.3536 40.0098 32.9222L48.7927 41.7896Z" fill="url(#paint0_linear_71_237)"/>
<path d="M54.7387 2.65066C51.2045 -0.883557 45.4744 -0.883558 41.9402 2.65066L15.6743 28.9166C12.963 31.1286 9.27158 33.5417 6.95844 33.0533C3.99953 32.4286 2.30307 29.7948 0.606189 27.1602C0.425457 26.8796 0.244721 26.599 0.0624537 26.3209L0.0624554 47.2749C-0.250421 49.9316 0.612315 52.7003 2.65066 54.7387C6.18488 58.2729 11.915 58.2729 15.4492 54.7387L54.7387 15.4492C58.2729 11.915 58.2729 6.18487 54.7387 2.65066Z" fill="#F61E1E"/>
<circle cx="9.17713" cy="14.8643" r="9.17713" fill="url(#paint1_linear_71_237)"/>
<path d="M85.5518 49.4699L76.5221 38.1449V49.4699H69.7979V13.9595H76.5221V34.162L85.4558 22.8851H94.1973L82.4779 36.2254L94.2934 49.4699H85.5518Z" fill="#2B2D42"/>
<path d="M119.941 35.6016C119.941 36.5614 119.877 37.4251 119.749 38.1929H100.296C100.457 40.1124 101.129 41.616 102.314 42.7037C103.498 43.7914 104.955 44.3352 106.684 44.3352C109.182 44.3352 110.959 43.2635 112.016 41.1201H119.268C118.5 43.6794 117.027 45.7908 114.85 47.4544C112.672 49.086 109.999 49.9017 106.829 49.9017C104.267 49.9017 101.961 49.3419 99.9122 48.2222C97.8949 47.0705 96.3099 45.4549 95.1572 43.3755C94.0364 41.2961 93.4761 38.8967 93.4761 36.1775C93.4761 33.4262 94.0364 31.0109 95.1572 28.9314C96.2779 26.852 97.8469 25.2524 99.8641 24.1327C101.881 23.013 104.203 22.4532 106.829 22.4532C109.358 22.4532 111.616 22.997 113.601 24.0847C115.618 25.1724 117.171 26.724 118.26 28.7395C119.38 30.7229 119.941 33.0103 119.941 35.6016ZM112.976 33.6821C112.944 31.9546 112.32 30.579 111.103 29.5552C109.886 28.4995 108.398 27.9717 106.636 27.9717C104.971 27.9717 103.562 28.4835 102.41 29.5073C101.289 30.499 100.601 31.8906 100.344 33.6821H112.976Z" fill="#2B2D42"/>
<path d="M147.663 22.8851L134.426 55.3212H129.796L130.16 49.9017L119.133 22.8851H126.674L133.542 41.456L140.507 22.8851H147.663Z" fill="#2B2D42"/>
<path d="M158.541 49.9017C156.459 49.9017 154.586 49.5338 152.921 48.798C151.288 48.0302 149.991 47.0065 149.031 45.7269C148.07 44.4152 147.558 42.9596 147.494 41.3601H153.161C153.257 42.4797 153.786 43.4235 154.746 44.1913C155.739 44.9271 156.972 45.295 158.445 45.295C159.982 45.295 161.166 45.0071 161.999 44.4312C162.864 43.8234 163.296 43.0556 163.296 42.1278C163.296 41.1361 162.815 40.4003 161.855 39.9204C160.926 39.4406 159.437 38.9127 157.388 38.3369C155.403 37.793 153.786 37.2652 152.537 36.7533C151.288 36.2414 150.199 35.4576 149.271 34.4019C148.374 33.3462 147.926 31.9546 147.926 30.2271C147.926 28.8194 148.342 27.5398 149.175 26.3881C150.007 25.2044 151.192 24.2767 152.729 23.6049C154.298 22.933 156.091 22.5971 158.108 22.5971C161.118 22.5971 163.536 23.3649 165.361 24.9005C167.218 26.4041 168.211 28.4675 168.339 31.0908H162.864C162.767 29.9072 162.287 28.9634 161.423 28.2596C160.558 27.5558 159.389 27.2039 157.916 27.2039C156.475 27.2039 155.371 27.4758 154.602 28.0197C153.834 28.5635 153.45 29.2833 153.45 30.1791C153.45 30.8829 153.706 31.4747 154.218 31.9546C154.73 32.4345 155.355 32.8184 156.091 33.1063C156.828 33.3622 157.916 33.6981 159.357 34.114C161.279 34.6259 162.848 35.1537 164.064 35.6976C165.313 36.2094 166.386 36.9772 167.282 38.001C168.179 39.0247 168.643 40.3843 168.675 42.0799C168.675 43.5834 168.259 44.9271 167.426 46.1108C166.594 47.2944 165.409 48.2222 163.872 48.894C162.367 49.5658 160.59 49.9017 158.541 49.9017Z" fill="#2B2D42"/>
<path d="M185.639 22.5971C187.656 22.5971 189.449 23.029 191.018 23.8928C192.619 24.7565 193.868 26.0362 194.764 27.7317C195.693 29.4273 196.157 31.4747 196.157 33.8741V49.4699H190.73V34.6899C190.73 32.3225 190.137 30.515 188.953 29.2673C187.768 27.9877 186.151 27.3478 184.102 27.3478C182.052 27.3478 180.419 27.9877 179.202 29.2673C178.018 30.515 177.425 32.3225 177.425 34.6899V49.4699H171.95V13.9595H177.425V26.1002C178.354 24.9805 179.523 24.1167 180.932 23.5089C182.372 22.9011 183.941 22.5971 185.639 22.5971Z" fill="#2B2D42"/>
<path d="M224.755 35.6016C224.755 36.5933 224.691 37.4891 224.563 38.2889H204.342C204.502 40.4003 205.287 42.0958 206.696 43.3755C208.105 44.6552 209.834 45.295 211.883 45.295C214.829 45.295 216.91 44.0633 218.127 41.6H224.035C223.234 44.0313 221.777 46.0308 219.664 47.5984C217.583 49.1339 214.989 49.9017 211.883 49.9017C209.353 49.9017 207.08 49.3419 205.063 48.2222C203.077 47.0705 201.508 45.4709 200.356 43.4235C199.235 41.3441 198.675 38.9447 198.675 36.2254C198.675 33.5062 199.219 31.1228 200.308 29.0754C201.428 26.9959 202.981 25.3964 204.967 24.2767C206.984 23.157 209.289 22.5971 211.883 22.5971C214.381 22.5971 216.606 23.141 218.559 24.2287C220.512 25.3164 222.033 26.852 223.122 28.8354C224.211 30.7869 224.755 33.0423 224.755 35.6016ZM219.04 33.8741C219.008 31.8586 218.287 30.2431 216.878 29.0274C215.469 27.8117 213.724 27.2039 211.643 27.2039C209.754 27.2039 208.137 27.8117 206.792 29.0274C205.447 30.2111 204.646 31.8266 204.39 33.8741H219.04Z" fill="#2B2D42"/>
<path d="M232.977 13.9595V49.4699H227.502V13.9595H232.977Z" fill="#2B2D42"/>
<path d="M243 13.9595V49.4699H237.525V13.9595H243Z" fill="#2B2D42"/>
<rect x="119.173" y="49.8924" width="11.3745" height="5.42872" fill="#2B2D42"/>
<defs>
<linearGradient id="paint0_linear_71_237" x1="48.7927" y1="54.7128" x2="27.0031" y2="33.1307" gradientUnits="userSpaceOnUse">
<stop stop-color="#F61E1E"/>
<stop offset="1" stop-color="#640C0C"/>
</linearGradient>
<linearGradient id="paint1_linear_71_237" x1="9.17713" y1="5.68719" x2="9.17713" y2="24.0414" gradientUnits="userSpaceOnUse">
<stop stop-color="#F61E1E"/>
<stop offset="1" stop-color="#A30E0E"/>
</linearGradient>
</defs>
</svg>
